<?xml version="1.0" standalone="no"?>
<!DOCTYPE svg PUBLIC "-//W3C//DTD SVG 20010904//EN"
 "http://www.w3.org/TR/2001/REC-SVG-20010904/DTD/svg10.dtd">
<svg version="1.0" xmlns="http://www.w3.org/2000/svg"
 width="1500.000000pt" height="735.000000pt" viewBox="0 0 1500.000000 735.000000"
 preserveAspectRatio="xMidYMid meet">

<g transform="translate(0.000000,735.000000) scale(0.100000,-0.100000)"
fill="#000000" stroke="none">
<path d="M1530 6419 c-251 -31 -472 -145 -584 -302 -75 -106 -97 -179 -97
-322 2 -332 205 -516 773 -695 260 -83 363 -139 414 -225 32 -56 43 -152 24
-220 -17 -61 -85 -136 -149 -164 -97 -41 -250 -49 -386 -19 -177 39 -280 147
-293 305 l-5 63 -218 0 -219 0 0 -63 c0 -341 325 -612 787 -657 197 -20 427
14 580 85 258 119 377 310 360 576 -10 151 -70 285 -175 386 -114 110 -274
191 -564 287 -333 109 -442 173 -473 280 -41 138 45 282 194 326 93 27 164 32
250 20 182 -26 299 -133 318 -290 l6 -50 218 0 219 0 0 48 c-1 138 -66 281
-184 398 -118 118 -244 184 -411 219 -98 20 -284 27 -385 14z"/>
<path d="M3490 5270 l0 -1120 225 0 225 0 0 318 c-1 174 -11 544 -24 822 -13
278 -21 507 -19 510 2 2 7 -1 11 -7 4 -6 139 -379 301 -827 l295 -816 152 0
152 0 10 28 c49 137 584 1611 588 1622 4 9 8 11 11 4 2 -7 -5 -217 -17 -469
-11 -265 -20 -610 -20 -821 l0 -364 225 0 225 0 0 1120 0 1120 -297 0 -298 0
-284 -814 c-156 -448 -288 -820 -292 -828 -4 -7 -10 -10 -12 -8 -2 3 -131 375
-287 828 l-284 822 -293 0 -293 0 0 -1120z"/>
<path d="M7681 6368 c-19 -51 -761 -2209 -761 -2214 0 -2 102 -3 227 -2 l227
3 75 238 74 237 398 0 398 0 15 -52 c9 -29 42 -136 74 -238 l58 -185 227 -3
226 -2 -90 262 c-49 145 -221 648 -382 1118 l-293 855 -232 3 -232 2 -9 -22z
m382 -932 c75 -239 137 -439 137 -445 0 -13 -560 -16 -560 -3 -1 15 275 882
281 882 3 0 67 -195 142 -434z"/>
<path d="M9760 5271 l0 -1121 225 0 225 0 0 451 0 451 263 -4 c241 -4 267 -6
318 -26 96 -38 160 -108 191 -207 5 -16 13 -133 18 -260 9 -239 19 -303 62
-372 l20 -33 239 0 c131 0 239 4 239 8 0 5 -15 29 -34 53 -56 72 -67 127 -76
371 -9 238 -21 305 -72 406 -42 84 -112 152 -199 196 -39 20 -78 36 -85 36
-29 0 -12 16 54 50 82 43 190 146 226 217 42 85 59 174 53 283 -15 244 -129
421 -342 526 -178 88 -176 88 -787 92 l-538 3 0 -1120z m1025 750 c80 -31 154
-106 178 -180 21 -67 22 -180 1 -251 -12 -39 -29 -66 -67 -104 -83 -83 -112
-89 -424 -94 l-263 -4 0 332 0 332 258 -4 c240 -4 261 -5 317 -27z"/>
<path d="M12340 6220 l0 -170 315 0 315 0 0 -950 0 -950 225 0 225 0 0 950 0
950 320 0 320 0 0 170 0 170 -860 0 -860 0 0 -170z"/>
<path d="M12295 2995 c-108 -17 -157 -31 -242 -70 -235 -108 -408 -318 -474
-577 -20 -75 -22 -116 -26 -438 -5 -400 3 -494 56 -640 46 -125 103 -214 200
-310 101 -101 173 -151 285 -196 120 -48 235 -67 406 -67 227 1 385 34 544
114 102 52 157 90 229 157 l57 55 0 429 0 428 -420 0 -420 0 0 -155 0 -155
195 0 195 0 0 -215 0 -215 -39 -25 c-74 -46 -156 -67 -291 -72 -97 -4 -139 -2
-190 11 -173 44 -301 188 -345 387 -14 64 -16 130 -13 440 l3 364 28 80 c33
93 100 198 157 244 22 18 66 44 98 59 52 25 67 27 177 27 151 -1 214 -22 290
-99 59 -59 91 -120 107 -202 6 -33 12 -65 14 -71 3 -10 53 -13 209 -13 179 0
206 2 212 16 9 25 -14 168 -41 245 -14 39 -40 96 -58 127 -49 83 -170 200
-253 244 -171 90 -433 128 -650 93z"/>
<path d="M1350 1850 l0 -1120 725 0 725 0 0 170 0 170 -500 0 -500 0 0 950 0
950 -225 0 -225 0 0 -1120z"/>
<path d="M3620 1850 l0 -1120 225 0 225 0 0 1120 0 1120 -225 0 -225 0 0
-1120z"/>
<path d="M4621 2963 c0 -5 170 -507 377 -1118 l377 -1110 234 0 234 0 378
1110 c208 611 379 1113 379 1118 0 4 -107 6 -237 5 l-237 -3 -233 -785 c-128
-432 -242 -823 -253 -870 -34 -136 -33 -136 -56 -41 -10 45 -359 1241 -490
1684 -5 16 -25 17 -240 17 -129 0 -234 -3 -233 -7z"/>
<path d="M7480 1850 l0 -1120 225 0 225 0 0 1120 0 1120 -225 0 -225 0 0
-1120z"/>
<path d="M8670 1850 l0 -1120 225 0 225 0 0 765 c0 421 4 765 8 765 4 0 211
-343 458 -762 l451 -763 227 -3 226 -2 0 1120 0 1120 -225 0 -225 0 0 -765 c0
-421 -3 -765 -7 -765 -5 1 -211 344 -458 763 l-451 762 -227 3 -227 2 0 -1120z"/>
</g>
</svg>
