<?xml version="1.0" encoding="utf-8"?>
<!-- Generator: Adobe Illustrator 21.0.0, SVG Export Plug-In . SVG Version: 6.00 Build 0)  -->
<svg version="1.1" id="Layer_1" xmlns="http://www.w3.org/2000/svg" xmlns:xlink="http://www.w3.org/1999/xlink" x="0px" y="0px"
	 viewBox="0 0 800 800" style="enable-background:new 0 0 800 800;" xml:space="preserve">
<style type="text/css">
	.st0{fill:#134A85;}
</style>
<g>
	<g>
		<path class="st0" d="M587.5,372.3c0.1,0,0.3,0,0.4,0l1.2,0.2c0.4,0.1,0.9,0.1,1.2,0.2c1.2,1.3,2.2,2.5,3,3.5l51.8,68.2
			c4.2,5.4,7.8,9.2,10.6,10.9c3.7,2.2,9.1,3.1,15.6,3.1c6.7,0,12.5-1.7,17.1-5.3c3.6-2.8,6.5-6.2,8.8-10.4c2.4-4.4,3.7-8.9,3.7-13.5
			v-85.3h-29.8v77.6c0,1.5,0,2.3-0.8,3.2c-0.9,0-1.6-0.2-2.1-0.4c-1.5-1.4-2.6-2.6-3.3-3.6l-53.7-67.6c-6.2-7.7-14.7-11.4-25.3-11.4
			c-9.7,0-17.6,3.6-23.2,10.8c-4.1,5.3-6.4,10.6-6.4,15.6v86.7h30.8v-81.5C587.2,372.9,587.4,372.4,587.5,372.3z"/>
		<path class="st0" d="M99.6,385.4V455h101.3c4,0,8.4-1.6,13.2-4.4c5-2.8,9.1-6.4,12.4-10.6c3.8-5.1,5.9-10.4,5.9-16.1v-46.8
			c0-4.4-1.5-9.2-4.3-14.3c-3-5.5-7-10-12-13.5c-5.3-3.6-11-5.5-17-5.5H99v28h87.3c3.5,0,6.2,0.6,8.4,1.7c4,2.1,6.5,8.1,6.5,14.2
			v23.5c0,5-1.3,8.5-3.7,10.9c-2.3,2.4-5.6,3.8-10.3,3.8h-56.4v-40.5H99.6z"/>
		<path class="st0" d="M372.5,413.2c12.1,0,18.3-7,18.3-19.5v-24.3c0-5.8-3.3-11.4-8.8-16.7c-5.8-5.7-11.8-8.9-17.9-8.9h-83
			c-7,0-14,3.5-20.7,9.7c-7.1,6.6-11,13.9-11,22v45.7c0,3.8,1.5,8.4,4.1,13.6c3.1,6.2,7.5,11.1,13,14.8c5.6,3.7,11.7,5.6,18.4,5.6
			h104.4v-29.1H287.8c-1.3,0-2.7-0.6-4.2-2.5c-1.6-2-2.1-3.1-2.1-4.8v-5.3H372.5z M281.5,380.3c0-2,0.7-3.9,2.4-5.8
			c1.6-1.9,3.2-2.5,4.8-2.5l65.5,0.1c1.6,0,2.9,0.5,4.1,1.3c1.3,1,1.7,2,1.7,3.2v8.8h-78.5V380.3z"/>
		<path class="st0" d="M420,449.6c5.5,3.6,11.5,5.4,18,5.4h77c4.2,0,8.7-1.8,13.3-4.8c5.1-3.3,9.2-7.5,12.3-12.7
			c3.3-5.4,5-11.3,5-17.4v-37.9c0-14.7-6.1-25.7-18.6-33.3c-5.3-3.2-10.6-5-15.9-5h-75.8c-7.7,0-14.9,3.8-21.6,10.7
			c-7,7.2-10.6,15.5-10.6,24.8V419c0,5.3,1.5,10.7,4.3,16.2C410.4,441.2,414.6,446,420,449.6z M435.4,383.8c0-1.7,1.8-6.2,3.3-8.1
			c2.2-3,6.7-3.8,9.7-3.8h50.5c4.9,0,8.5,1.2,11.1,3.3c2.8,2.2,4.3,5.5,4.3,10.3v28.4c0,8.4-3.6,12-11.6,12h-55.5
			c-3.9,0-6.7-1.4-8.8-4.1c-2-2.6-3.1-6.1-3.1-10.7V383.8z"/>
	</g>
</g>
</svg>
