<svg width="39" height="19" viewBox="0 0 39 19" fill="none" xmlns="http://www.w3.org/2000/svg">
<path id="SMART LIVING" d="M5.2633 2.45455C5.21216 2.02273 5.00477 1.6875 4.64114 1.44886C4.2775 1.21023 3.83148 1.09091 3.30307 1.09091C2.9167 1.09091 2.57864 1.15341 2.28886 1.27841C2.00193 1.40341 1.7775 1.57528 1.61557 1.79403C1.45648 2.01278 1.37693 2.26136 1.37693 2.53977C1.37693 2.77273 1.43233 2.97301 1.54313 3.14062C1.65676 3.3054 1.80165 3.44318 1.97778 3.55398C2.15392 3.66193 2.33858 3.75142 2.53176 3.82244C2.72494 3.89062 2.9025 3.94602 3.06443 3.98864L3.9508 4.22727C4.17807 4.28693 4.43091 4.36932 4.70932 4.47443C4.99057 4.57955 5.25903 4.72301 5.51472 4.90483C5.77324 5.08381 5.98631 5.31392 6.15392 5.59517C6.32153 5.87642 6.40534 6.22159 6.40534 6.63068C6.40534 7.10227 6.28176 7.52841 6.0346 7.90909C5.79028 8.28977 5.43233 8.59233 4.96074 8.81676C4.49199 9.04119 3.92239 9.15341 3.25193 9.15341C2.62693 9.15341 2.08574 9.05256 1.62835 8.85085C1.17381 8.64915 0.815852 8.3679 0.554489 8.0071C0.295966 7.64631 0.149659 7.22727 0.115568 6.75H1.20648C1.23489 7.07955 1.34568 7.35227 1.53886 7.56818C1.73489 7.78125 1.98205 7.94034 2.28034 8.04545C2.58148 8.14773 2.90534 8.19886 3.25193 8.19886C3.65534 8.19886 4.01756 8.13352 4.33858 8.00284C4.6596 7.86932 4.91386 7.68466 5.10136 7.44886C5.28886 7.21023 5.38261 6.93182 5.38261 6.61364C5.38261 6.32386 5.30165 6.08807 5.13972 5.90625C4.97778 5.72443 4.76472 5.5767 4.50051 5.46307C4.23631 5.34943 3.9508 5.25 3.64398 5.16477L2.57011 4.85795C1.8883 4.66193 1.34852 4.3821 0.950796 4.01847C0.553068 3.65483 0.354205 3.17898 0.354205 2.59091C0.354205 2.10227 0.486307 1.67614 0.750512 1.3125C1.01756 0.946023 1.37551 0.661932 1.82438 0.460227C2.27608 0.255682 2.78034 0.153409 3.33716 0.153409C3.89966 0.153409 4.39966 0.254261 4.83716 0.455966C5.27466 0.654829 5.62125 0.927556 5.87693 1.27415C6.13545 1.62074 6.27182 2.0142 6.28602 2.45455H5.2633ZM7.72291 0.272727H8.98428L11.9502 7.51705H12.0525L15.0184 0.272727H16.2797V9H15.2911V2.36932H15.2059L12.4786 9H11.524L8.79678 2.36932H8.71155V9H7.72291V0.272727ZM18.3366 9H17.2287L20.4332 0.272727H21.5241L24.7287 9H23.6207L21.0128 1.65341H20.9446L18.3366 9ZM18.7457 5.59091H23.2116V6.52841H18.7457V5.59091ZM25.6681 9V0.272727H28.6169C29.2988 0.272727 29.8584 0.389204 30.2959 0.622159C30.7334 0.852272 31.0573 1.16903 31.2675 1.57244C31.4777 1.97585 31.5828 2.43466 31.5828 2.94886C31.5828 3.46307 31.4777 3.91903 31.2675 4.31676C31.0573 4.71449 30.7348 5.02699 30.3002 5.25426C29.8655 5.47869 29.3101 5.59091 28.634 5.59091H26.2476V4.63636H28.5999C29.0658 4.63636 29.4408 4.56818 29.7249 4.43182C30.0118 4.29545 30.2192 4.10227 30.347 3.85227C30.4777 3.59943 30.5431 3.2983 30.5431 2.94886C30.5431 2.59943 30.4777 2.29403 30.347 2.03267C30.2164 1.77131 30.0076 1.5696 29.7206 1.42756C29.4337 1.28267 29.0544 1.21023 28.5828 1.21023H26.7249V9H25.6681ZM29.776 5.07955L31.9237 9H30.6965L28.5828 5.07955H29.776ZM32.4466 1.21023V0.272727H38.992V1.21023H36.2477V9H35.1909V1.21023H32.4466ZM2.02479 18V9.27273H3.0816V17.0625H7.13842V18H2.02479ZM9.4116 9.27273V18H8.35479V9.27273H9.4116ZM11.4685 9.27273L14.0594 16.6193H14.1617L16.7526 9.27273H17.8606L14.656 18H13.5651L10.3606 9.27273H11.4685ZM19.8568 9.27273V18H18.7999V9.27273H19.8568ZM28.4762 9.27273V18H27.4535L22.6978 11.1477H22.6125V18H21.5557V9.27273H22.5785L27.3512 16.142H27.4364V9.27273H28.4762ZM36.1368 12C36.043 11.7131 35.9195 11.456 35.766 11.2287C35.6155 10.9986 35.4351 10.8026 35.2249 10.6406C35.0175 10.4787 34.7817 10.3551 34.5175 10.2699C34.2533 10.1847 33.9635 10.142 33.6482 10.142C33.1311 10.142 32.6609 10.2756 32.2376 10.5426C31.8143 10.8097 31.4777 11.2031 31.2277 11.723C30.9777 12.2429 30.8527 12.8807 30.8527 13.6364C30.8527 14.392 30.9791 15.0298 31.232 15.5497C31.4848 16.0696 31.8271 16.4631 32.2589 16.7301C32.6908 16.9972 33.1766 17.1307 33.7163 17.1307C34.2163 17.1307 34.6567 17.0241 35.0374 16.8111C35.4209 16.5952 35.7192 16.2912 35.9322 15.8991C36.1482 15.5043 36.2561 15.0398 36.2561 14.5057L36.58 14.5739H33.955V13.6364H37.2788V14.5739C37.2788 15.2926 37.1254 15.9176 36.8186 16.4489C36.5146 16.9801 36.0942 17.392 35.5572 17.6847C35.0232 17.9744 34.4095 18.1193 33.7163 18.1193C32.9436 18.1193 32.2646 17.9375 31.6794 17.5739C31.097 17.2102 30.6425 16.6932 30.3158 16.0227C29.9919 15.3523 29.83 14.5568 29.83 13.6364C29.83 12.946 29.9223 12.3253 30.107 11.7741C30.2945 11.2202 30.5587 10.7486 30.8996 10.3594C31.2405 9.97017 31.6439 9.67188 32.1098 9.46449C32.5757 9.2571 33.0885 9.15341 33.6482 9.15341C34.1084 9.15341 34.5374 9.22301 34.9351 9.36222C35.3357 9.49858 35.6922 9.69318 36.0047 9.94602C36.32 10.196 36.5828 10.4957 36.793 10.8452C37.0033 11.1918 37.1482 11.5767 37.2277 12H36.1368Z" fill="white"/>
</svg>
