<?xml version="1.0" encoding="utf-8"?>
<!-- Generator: Adobe Illustrator 21.0.0, SVG Export Plug-In . SVG Version: 6.00 Build 0)  -->
<svg version="1.1" id="Layer_1" xmlns="http://www.w3.org/2000/svg" xmlns:xlink="http://www.w3.org/1999/xlink" x="0px" y="0px"
	 viewBox="0 0 800 800" style="enable-background:new 0 0 800 800;" xml:space="preserve">
<style type="text/css">
	.st0{fill:#134A85;}
</style>
<g>
	<path class="st0" d="M628.7,0.1H171.5C76.8,0.1,0,77.4,0,172.7v454.4c0,95.5,76.8,172.7,171.5,172.7h457.2
		c94.7,0,171.3-77.4,171.3-172.7V172.7C800,77.4,723.4,0.1,628.7,0.1z M639.2,499.8c0,20.4-7.5,39.9-21.4,58
		c-12.1,15.3-27,28-44.9,38.3c-17.3,9.9-33.5,15.7-47.8,15.7H159.2V360.4h113v146.3H476c16.7,0,28.6-4.8,37.1-13.7
		c8.5-8.7,13.3-21.4,13.3-39.3v-84.8c0-21.8-9.1-43.5-23.6-51c-7.9-4-17.7-6.2-30.2-6.2H157V210.4h361.9c22,0,42.7,6.9,61.7,19.9
		c17.9,12.5,32.6,28.8,43.3,48.8c9.9,18.5,15.3,35.7,15.3,51.6V499.8z M663.2,267.5c-4.2,0-8.5-1.8-11.3-4.6
		c-2.8-2.8-4.6-6.9-4.6-11.3c0-13.9-5.4-27.2-15.3-37.1c-9.9-9.9-23.2-15.5-37.1-15.5c-8.9,0-15.9-7.1-15.9-16.1
		c0-8.9,7.1-16.1,15.9-16.1c22.6,0,43.9,8.9,59.8,24.8c15.9,15.9,24.8,37.3,24.8,59.8C679.3,260.4,672.2,267.5,663.2,267.5z
		 M716.2,267.5c-4.4,0-8.5-1.8-11.5-4.6c-2.8-2.8-4.6-6.9-4.6-11.3c0-28.2-11.1-54.6-30.8-74.6c-19.9-19.7-46.3-30.8-74.6-30.8
		c-8.9,0-15.9-7.3-15.9-16.1s7.1-16.1,15.9-16.1c36.7,0,71.1,14.3,97.3,40.3c26,26,40.3,60.5,40.3,97.1
		C732.3,260.4,725,267.5,716.2,267.5z"/>
</g>
</svg>
