<?xml version="1.0" encoding="utf-8"?>
<!-- Generator: Adobe Illustrator 21.0.0, SVG Export Plug-In . SVG Version: 6.00 Build 0)  -->
<svg version="1.1" id="Layer_1" xmlns="http://www.w3.org/2000/svg" xmlns:xlink="http://www.w3.org/1999/xlink" x="0px" y="0px"
	 viewBox="0 0 800 800" style="enable-background:new 0 0 800 800;" xml:space="preserve">
<style type="text/css">
	.st0{fill:#134A85;}
</style>
<g>
	<path class="st0" d="M513.5,201.5H286.6c-47,0-85.1,38.4-85.1,85.7v225.5c0,47.4,38.1,85.7,85.1,85.7h226.9c47,0,85-38.4,85-85.7
		V287.2C598.5,239.9,560.5,201.5,513.5,201.5z M518.7,449.5c0,10.1-3.7,19.8-10.6,28.8c-6,7.6-13.4,13.9-22.3,19
		c-8.6,4.9-16.6,7.8-23.7,7.8H280.5V380.3h56.1v72.6h101.1c8.3,0,14.2-2.4,18.4-6.8c4.2-4.3,6.6-10.6,6.6-19.5v-42.1
		c0-10.8-4.5-21.6-11.7-25.3c-3.9-2-8.8-3.1-15-3.1H279.4v-50.2H459c10.9,0,21.2,3.4,30.6,9.9c8.9,6.2,16.2,14.3,21.5,24.2
		c4.9,9.2,7.6,17.7,7.6,25.6V449.5z M530.6,334.2c-2.1,0-4.2-0.9-5.6-2.3c-1.4-1.4-2.3-3.4-2.3-5.6c0-6.9-2.7-13.5-7.6-18.4
		c-4.9-4.9-11.5-7.7-18.4-7.7c-4.4,0-7.9-3.5-7.9-8c0-4.4,3.5-8,7.9-8c11.2,0,21.8,4.4,29.7,12.3c7.9,7.9,12.3,18.5,12.3,29.7
		C538.6,330.7,535.1,334.2,530.6,334.2z M556.9,334.2c-2.2,0-4.2-0.9-5.7-2.3c-1.4-1.4-2.3-3.4-2.3-5.6c0-14-5.5-27.1-15.3-37
		c-9.9-9.8-23-15.3-37-15.3c-4.4,0-7.9-3.6-7.9-8c0-4.4,3.5-8,7.9-8c18.2,0,35.3,7.1,48.3,20c12.9,12.9,20,30,20,48.2
		C564.9,330.7,561.3,334.2,556.9,334.2z"/>
</g>
</svg>
